<mxfile host="app.diagrams.net" modified="2021-03-15T13:37:11.037Z" agent="5.0 (Windows NT 10.0; Win64; x64) AppleWebKit/537.36 (KHTML, like Gecko) Chrome/89.0.4389.82 Safari/537.36" etag="B87BEklTqeq_9on9fs7D" version="14.4.8" type="github">
  <diagram id="6W2m5K6illDX7pmvLQSl" name="Page-1">
    <mxGraphModel dx="1483" dy="1998" grid="1" gridSize="10" guides="1" tooltips="1" connect="1" arrows="1" fold="1" page="1" pageScale="1" pageWidth="827" pageHeight="1169" math="0" shadow="0">
      <root>
        <mxCell id="0" />
        <mxCell id="1" parent="0" />
        <mxCell id="xye77zWNS0Tj70axf8UB-51" style="edgeStyle=orthogonalEdgeStyle;rounded=0;orthogonalLoop=1;jettySize=auto;html=1;entryX=0.5;entryY=0;entryDx=0;entryDy=0;" parent="1" source="QQinSoSuHEGu0At0k3YD-1" target="xye77zWNS0Tj70axf8UB-39" edge="1">
          <mxGeometry relative="1" as="geometry">
            <mxPoint x="1200" y="-850" as="targetPoint" />
          </mxGeometry>
        </mxCell>
        <mxCell id="QQinSoSuHEGu0At0k3YD-1" value="Project Management App" style="swimlane;fontStyle=1;align=center;verticalAlign=top;childLayout=stackLayout;horizontal=1;startSize=26;horizontalStack=0;resizeParent=1;resizeParentMax=0;resizeLast=0;collapsible=1;marginBottom=0;" parent="1" vertex="1">
          <mxGeometry x="827" y="-910" width="160" height="120" as="geometry">
            <mxRectangle x="920" y="24" width="90" height="26" as="alternateBounds" />
          </mxGeometry>
        </mxCell>
        <mxCell id="QQinSoSuHEGu0At0k3YD-2" value="+ Employee: Employee[ ]&#xa;+ Project: Project[ ]" style="text;strokeColor=none;fillColor=none;align=left;verticalAlign=top;spacingLeft=4;spacingRight=4;overflow=hidden;rotatable=0;points=[[0,0.5],[1,0.5]];portConstraint=eastwest;" parent="QQinSoSuHEGu0At0k3YD-1" vertex="1">
          <mxGeometry y="26" width="160" height="44" as="geometry" />
        </mxCell>
        <mxCell id="QQinSoSuHEGu0At0k3YD-3" value="" style="line;strokeWidth=1;fillColor=none;align=left;verticalAlign=middle;spacingTop=-1;spacingLeft=3;spacingRight=3;rotatable=0;labelPosition=right;points=[];portConstraint=eastwest;" parent="QQinSoSuHEGu0At0k3YD-1" vertex="1">
          <mxGeometry y="70" width="160" height="8" as="geometry" />
        </mxCell>
        <mxCell id="QQinSoSuHEGu0At0k3YD-4" value="+ createEmployee()" style="text;strokeColor=none;fillColor=none;align=left;verticalAlign=top;spacingLeft=4;spacingRight=4;overflow=hidden;rotatable=0;points=[[0,0.5],[1,0.5]];portConstraint=eastwest;" parent="QQinSoSuHEGu0At0k3YD-1" vertex="1">
          <mxGeometry y="78" width="160" height="42" as="geometry" />
        </mxCell>
        <mxCell id="xye77zWNS0Tj70axf8UB-54" style="edgeStyle=orthogonalEdgeStyle;rounded=0;orthogonalLoop=1;jettySize=auto;html=1;entryX=0.006;entryY=0.83;entryDx=0;entryDy=0;entryPerimeter=0;" parent="1" source="QQinSoSuHEGu0At0k3YD-5" target="QQinSoSuHEGu0At0k3YD-2" edge="1">
          <mxGeometry relative="1" as="geometry" />
        </mxCell>
        <mxCell id="xye77zWNS0Tj70axf8UB-66" style="edgeStyle=orthogonalEdgeStyle;rounded=0;orthogonalLoop=1;jettySize=auto;html=1;entryX=0;entryY=0.5;entryDx=0;entryDy=0;" parent="1" source="QQinSoSuHEGu0At0k3YD-5" target="QQinSoSuHEGu0At0k3YD-10" edge="1">
          <mxGeometry relative="1" as="geometry">
            <Array as="points">
              <mxPoint x="740" y="-669" />
              <mxPoint x="740" y="-591" />
            </Array>
          </mxGeometry>
        </mxCell>
        <mxCell id="QQinSoSuHEGu0At0k3YD-5" value="Project" style="swimlane;fontStyle=1;align=center;verticalAlign=top;childLayout=stackLayout;horizontal=1;startSize=26;horizontalStack=0;resizeParent=1;resizeParentMax=0;resizeLast=0;collapsible=1;marginBottom=0;" parent="1" vertex="1">
          <mxGeometry x="480" y="-729" width="210" height="120" as="geometry" />
        </mxCell>
        <mxCell id="QQinSoSuHEGu0At0k3YD-6" value="- Tasks: Task[*]&#xa;- projectManager: Employee" style="text;strokeColor=none;fillColor=none;align=left;verticalAlign=top;spacingLeft=4;spacingRight=4;overflow=hidden;rotatable=0;points=[[0,0.5],[1,0.5]];portConstraint=eastwest;" parent="QQinSoSuHEGu0At0k3YD-5" vertex="1">
          <mxGeometry y="26" width="210" height="44" as="geometry" />
        </mxCell>
        <mxCell id="QQinSoSuHEGu0At0k3YD-7" value="" style="line;strokeWidth=1;fillColor=none;align=left;verticalAlign=middle;spacingTop=-1;spacingLeft=3;spacingRight=3;rotatable=0;labelPosition=right;points=[];portConstraint=eastwest;" parent="QQinSoSuHEGu0At0k3YD-5" vertex="1">
          <mxGeometry y="70" width="210" height="8" as="geometry" />
        </mxCell>
        <mxCell id="QQinSoSuHEGu0At0k3YD-8" value="+ assignProjectManager(Employee)&#xa;+ getRemainingTime()&#xa;" style="text;strokeColor=none;fillColor=none;align=left;verticalAlign=top;spacingLeft=4;spacingRight=4;overflow=hidden;rotatable=0;points=[[0,0.5],[1,0.5]];portConstraint=eastwest;" parent="QQinSoSuHEGu0At0k3YD-5" vertex="1">
          <mxGeometry y="78" width="210" height="42" as="geometry" />
        </mxCell>
        <mxCell id="QQinSoSuHEGu0At0k3YD-9" value="ProjectManager" style="swimlane;fontStyle=1;align=center;verticalAlign=top;childLayout=stackLayout;horizontal=1;startSize=26;horizontalStack=0;resizeParent=1;resizeParentMax=0;resizeLast=0;collapsible=1;marginBottom=0;" parent="1" vertex="1">
          <mxGeometry x="810" y="-630" width="190" height="100" as="geometry">
            <mxRectangle x="827" y="-520" width="120" height="26" as="alternateBounds" />
          </mxGeometry>
        </mxCell>
        <mxCell id="QQinSoSuHEGu0At0k3YD-10" value="- AssignedEmployee: Employee" style="text;strokeColor=none;fillColor=none;align=left;verticalAlign=top;spacingLeft=4;spacingRight=4;overflow=hidden;rotatable=0;points=[[0,0.5],[1,0.5]];portConstraint=eastwest;" parent="QQinSoSuHEGu0At0k3YD-9" vertex="1">
          <mxGeometry y="26" width="190" height="26" as="geometry" />
        </mxCell>
        <mxCell id="QQinSoSuHEGu0At0k3YD-11" value="" style="line;strokeWidth=1;fillColor=none;align=left;verticalAlign=middle;spacingTop=-1;spacingLeft=3;spacingRight=3;rotatable=0;labelPosition=right;points=[];portConstraint=eastwest;" parent="QQinSoSuHEGu0At0k3YD-9" vertex="1">
          <mxGeometry y="52" width="190" height="8" as="geometry" />
        </mxCell>
        <mxCell id="QQinSoSuHEGu0At0k3YD-12" value="+ createTask()&#xa;+ createReport()&#xa;+Â " style="text;strokeColor=none;fillColor=none;align=left;verticalAlign=top;spacingLeft=4;spacingRight=4;overflow=hidden;rotatable=0;points=[[0,0.5],[1,0.5]];portConstraint=eastwest;" parent="QQinSoSuHEGu0At0k3YD-9" vertex="1">
          <mxGeometry y="60" width="190" height="40" as="geometry" />
        </mxCell>
        <mxCell id="QQinSoSuHEGu0At0k3YD-13" value="Activity" style="swimlane;fontStyle=1;align=center;verticalAlign=top;childLayout=stackLayout;horizontal=1;startSize=26;horizontalStack=0;resizeParent=1;resizeParentMax=0;resizeLast=0;collapsible=1;marginBottom=0;" parent="1" vertex="1">
          <mxGeometry x="1161" y="-480" width="160" height="94" as="geometry" />
        </mxCell>
        <mxCell id="QQinSoSuHEGu0At0k3YD-14" value="- name : string&#xa;- boolean : isPaid" style="text;strokeColor=none;fillColor=none;align=left;verticalAlign=top;spacingLeft=4;spacingRight=4;overflow=hidden;rotatable=0;points=[[0,0.5],[1,0.5]];portConstraint=eastwest;" parent="QQinSoSuHEGu0At0k3YD-13" vertex="1">
          <mxGeometry y="26" width="160" height="34" as="geometry" />
        </mxCell>
        <mxCell id="QQinSoSuHEGu0At0k3YD-15" value="" style="line;strokeWidth=1;fillColor=none;align=left;verticalAlign=middle;spacingTop=-1;spacingLeft=3;spacingRight=3;rotatable=0;labelPosition=right;points=[];portConstraint=eastwest;" parent="QQinSoSuHEGu0At0k3YD-13" vertex="1">
          <mxGeometry y="60" width="160" height="8" as="geometry" />
        </mxCell>
        <mxCell id="QQinSoSuHEGu0At0k3YD-16" value="+ method(type): type" style="text;strokeColor=none;fillColor=none;align=left;verticalAlign=top;spacingLeft=4;spacingRight=4;overflow=hidden;rotatable=0;points=[[0,0.5],[1,0.5]];portConstraint=eastwest;" parent="QQinSoSuHEGu0At0k3YD-13" vertex="1">
          <mxGeometry y="68" width="160" height="26" as="geometry" />
        </mxCell>
        <mxCell id="xye77zWNS0Tj70axf8UB-59" style="edgeStyle=orthogonalEdgeStyle;rounded=0;orthogonalLoop=1;jettySize=auto;html=1;entryX=0.012;entryY=0.145;entryDx=0;entryDy=0;entryPerimeter=0;" parent="1" source="QQinSoSuHEGu0At0k3YD-17" target="xye77zWNS0Tj70axf8UB-39" edge="1">
          <mxGeometry relative="1" as="geometry" />
        </mxCell>
        <mxCell id="QQinSoSuHEGu0At0k3YD-17" value="Task" style="swimlane;fontStyle=1;align=center;verticalAlign=top;childLayout=stackLayout;horizontal=1;startSize=26;horizontalStack=0;resizeParent=1;resizeParentMax=0;resizeLast=0;collapsible=1;marginBottom=0;" parent="1" vertex="1">
          <mxGeometry x="827" y="-719" width="200" height="88" as="geometry" />
        </mxCell>
        <mxCell id="QQinSoSuHEGu0At0k3YD-18" value="- name : string&#xa;- assignedEmployees : Employee[*]&#xa;- startTime : Calender" style="text;strokeColor=none;fillColor=none;align=left;verticalAlign=top;spacingLeft=4;spacingRight=4;overflow=hidden;rotatable=0;points=[[0,0.5],[1,0.5]];portConstraint=eastwest;" parent="QQinSoSuHEGu0At0k3YD-17" vertex="1">
          <mxGeometry y="26" width="200" height="54" as="geometry" />
        </mxCell>
        <mxCell id="QQinSoSuHEGu0At0k3YD-19" value="" style="line;strokeWidth=1;fillColor=none;align=left;verticalAlign=middle;spacingTop=-1;spacingLeft=3;spacingRight=3;rotatable=0;labelPosition=right;points=[];portConstraint=eastwest;" parent="QQinSoSuHEGu0At0k3YD-17" vertex="1">
          <mxGeometry y="80" width="200" height="8" as="geometry" />
        </mxCell>
        <mxCell id="xye77zWNS0Tj70axf8UB-2" value="OffWork" style="swimlane;fontStyle=1;align=center;verticalAlign=top;childLayout=stackLayout;horizontal=1;startSize=26;horizontalStack=0;resizeParent=1;resizeParentMax=0;resizeLast=0;collapsible=1;marginBottom=0;" parent="1" vertex="1">
          <mxGeometry x="1161" y="-280" width="160" height="34" as="geometry" />
        </mxCell>
        <mxCell id="xye77zWNS0Tj70axf8UB-4" value="" style="line;strokeWidth=1;fillColor=none;align=left;verticalAlign=middle;spacingTop=-1;spacingLeft=3;spacingRight=3;rotatable=0;labelPosition=right;points=[];portConstraint=eastwest;" parent="xye77zWNS0Tj70axf8UB-2" vertex="1">
          <mxGeometry y="26" width="160" height="8" as="geometry" />
        </mxCell>
        <mxCell id="xye77zWNS0Tj70axf8UB-9" value="" style="endArrow=none;html=1;entryX=0.5;entryY=0;entryDx=0;entryDy=0;" parent="1" target="xye77zWNS0Tj70axf8UB-2" edge="1">
          <mxGeometry width="50" height="50" relative="1" as="geometry">
            <mxPoint x="1241" y="-330" as="sourcePoint" />
            <mxPoint x="1260" y="-270" as="targetPoint" />
          </mxGeometry>
        </mxCell>
        <mxCell id="xye77zWNS0Tj70axf8UB-14" value="AtWork" style="swimlane;fontStyle=1;align=center;verticalAlign=top;childLayout=stackLayout;horizontal=1;startSize=26;horizontalStack=0;resizeParent=1;resizeParentMax=0;resizeLast=0;collapsible=1;marginBottom=0;" parent="1" vertex="1">
          <mxGeometry x="1330" y="-280" width="160" height="34" as="geometry" />
        </mxCell>
        <mxCell id="xye77zWNS0Tj70axf8UB-16" value="" style="line;strokeWidth=1;fillColor=none;align=left;verticalAlign=middle;spacingTop=-1;spacingLeft=3;spacingRight=3;rotatable=0;labelPosition=right;points=[];portConstraint=eastwest;" parent="xye77zWNS0Tj70axf8UB-14" vertex="1">
          <mxGeometry y="26" width="160" height="8" as="geometry" />
        </mxCell>
        <mxCell id="xye77zWNS0Tj70axf8UB-18" value="Holiday" style="swimlane;fontStyle=1;align=center;verticalAlign=top;childLayout=stackLayout;horizontal=1;startSize=26;horizontalStack=0;resizeParent=1;resizeParentMax=0;resizeLast=0;collapsible=1;marginBottom=0;" parent="1" vertex="1">
          <mxGeometry x="990" y="-280" width="160" height="40" as="geometry" />
        </mxCell>
        <mxCell id="xye77zWNS0Tj70axf8UB-20" value="" style="line;strokeWidth=1;fillColor=none;align=left;verticalAlign=middle;spacingTop=-1;spacingLeft=3;spacingRight=3;rotatable=0;labelPosition=right;points=[];portConstraint=eastwest;" parent="xye77zWNS0Tj70axf8UB-18" vertex="1">
          <mxGeometry y="26" width="160" height="14" as="geometry" />
        </mxCell>
        <mxCell id="xye77zWNS0Tj70axf8UB-22" value="Working on project" style="swimlane;fontStyle=1;align=center;verticalAlign=top;childLayout=stackLayout;horizontal=1;startSize=26;horizontalStack=0;resizeParent=1;resizeParentMax=0;resizeLast=0;collapsible=1;marginBottom=0;" parent="1" vertex="1">
          <mxGeometry x="1500" y="-280" width="160" height="34" as="geometry" />
        </mxCell>
        <mxCell id="xye77zWNS0Tj70axf8UB-24" value="" style="line;strokeWidth=1;fillColor=none;align=left;verticalAlign=middle;spacingTop=-1;spacingLeft=3;spacingRight=3;rotatable=0;labelPosition=right;points=[];portConstraint=eastwest;" parent="xye77zWNS0Tj70axf8UB-22" vertex="1">
          <mxGeometry y="26" width="160" height="8" as="geometry" />
        </mxCell>
        <mxCell id="xye77zWNS0Tj70axf8UB-26" value="Seminar" style="swimlane;fontStyle=1;align=center;verticalAlign=top;childLayout=stackLayout;horizontal=1;startSize=26;horizontalStack=0;resizeParent=1;resizeParentMax=0;resizeLast=0;collapsible=1;marginBottom=0;" parent="1" vertex="1">
          <mxGeometry x="820" y="-280" width="160" height="34" as="geometry" />
        </mxCell>
        <mxCell id="xye77zWNS0Tj70axf8UB-28" value="" style="line;strokeWidth=1;fillColor=none;align=left;verticalAlign=middle;spacingTop=-1;spacingLeft=3;spacingRight=3;rotatable=0;labelPosition=right;points=[];portConstraint=eastwest;" parent="xye77zWNS0Tj70axf8UB-26" vertex="1">
          <mxGeometry y="26" width="160" height="8" as="geometry" />
        </mxCell>
        <mxCell id="xye77zWNS0Tj70axf8UB-30" value="" style="endArrow=none;html=1;" parent="1" edge="1">
          <mxGeometry width="50" height="50" relative="1" as="geometry">
            <mxPoint x="910" y="-280" as="sourcePoint" />
            <mxPoint x="910" y="-330" as="targetPoint" />
          </mxGeometry>
        </mxCell>
        <mxCell id="xye77zWNS0Tj70axf8UB-33" value="" style="endArrow=none;html=1;exitX=0.5;exitY=0;exitDx=0;exitDy=0;" parent="1" source="xye77zWNS0Tj70axf8UB-18" edge="1">
          <mxGeometry width="50" height="50" relative="1" as="geometry">
            <mxPoint x="1210" y="-190" as="sourcePoint" />
            <mxPoint x="1070" y="-330" as="targetPoint" />
          </mxGeometry>
        </mxCell>
        <mxCell id="xye77zWNS0Tj70axf8UB-34" value="" style="endArrow=none;html=1;exitX=0.5;exitY=0;exitDx=0;exitDy=0;" parent="1" source="xye77zWNS0Tj70axf8UB-14" edge="1">
          <mxGeometry width="50" height="50" relative="1" as="geometry">
            <mxPoint x="1210" y="-190" as="sourcePoint" />
            <mxPoint x="1410" y="-330" as="targetPoint" />
          </mxGeometry>
        </mxCell>
        <mxCell id="xye77zWNS0Tj70axf8UB-35" value="" style="endArrow=none;html=1;exitX=0.5;exitY=0;exitDx=0;exitDy=0;" parent="1" source="xye77zWNS0Tj70axf8UB-22" edge="1">
          <mxGeometry width="50" height="50" relative="1" as="geometry">
            <mxPoint x="1210" y="-190" as="sourcePoint" />
            <mxPoint x="1580" y="-330" as="targetPoint" />
          </mxGeometry>
        </mxCell>
        <mxCell id="xye77zWNS0Tj70axf8UB-36" value="" style="endArrow=none;html=1;" parent="1" edge="1">
          <mxGeometry width="50" height="50" relative="1" as="geometry">
            <mxPoint x="910" y="-330" as="sourcePoint" />
            <mxPoint x="1580" y="-330" as="targetPoint" />
          </mxGeometry>
        </mxCell>
        <mxCell id="xye77zWNS0Tj70axf8UB-37" value="" style="endArrow=none;html=1;exitX=1;exitY=0.5;exitDx=0;exitDy=0;" parent="1" source="AMtBbdAEOM9LbvXhgEqw-5" edge="1">
          <mxGeometry width="50" height="50" relative="1" as="geometry">
            <mxPoint x="1241" y="-394" as="sourcePoint" />
            <mxPoint x="1241" y="-320" as="targetPoint" />
          </mxGeometry>
        </mxCell>
        <mxCell id="xye77zWNS0Tj70axf8UB-74" style="edgeStyle=orthogonalEdgeStyle;rounded=0;orthogonalLoop=1;jettySize=auto;html=1;dashed=1;" parent="1" source="xye77zWNS0Tj70axf8UB-39" target="QQinSoSuHEGu0At0k3YD-13" edge="1">
          <mxGeometry relative="1" as="geometry">
            <Array as="points">
              <mxPoint x="1240" y="-529" />
              <mxPoint x="1241" y="-529" />
            </Array>
          </mxGeometry>
        </mxCell>
        <mxCell id="xye77zWNS0Tj70axf8UB-39" value="Employee" style="swimlane;fontStyle=1;align=center;verticalAlign=top;childLayout=stackLayout;horizontal=1;startSize=26;horizontalStack=0;resizeParent=1;resizeParentMax=0;resizeLast=0;collapsible=1;marginBottom=0;" parent="1" vertex="1">
          <mxGeometry x="1161" y="-719" width="170" height="140" as="geometry">
            <mxRectangle x="920" y="24" width="90" height="26" as="alternateBounds" />
          </mxGeometry>
        </mxCell>
        <mxCell id="xye77zWNS0Tj70axf8UB-40" value="- name: string&#xa;- assignedTasks: Tasks[*]&#xa;- assignedProjects: Projects[*]&#xa;- allActivities: Activity[*]" style="text;strokeColor=none;fillColor=none;align=left;verticalAlign=top;spacingLeft=4;spacingRight=4;overflow=hidden;rotatable=0;points=[[0,0.5],[1,0.5]];portConstraint=eastwest;" parent="xye77zWNS0Tj70axf8UB-39" vertex="1">
          <mxGeometry y="26" width="170" height="64" as="geometry" />
        </mxCell>
        <mxCell id="xye77zWNS0Tj70axf8UB-41" value="" style="line;strokeWidth=1;fillColor=none;align=left;verticalAlign=middle;spacingTop=-1;spacingLeft=3;spacingRight=3;rotatable=0;labelPosition=right;points=[];portConstraint=eastwest;" parent="xye77zWNS0Tj70axf8UB-39" vertex="1">
          <mxGeometry y="90" width="170" height="8" as="geometry" />
        </mxCell>
        <mxCell id="xye77zWNS0Tj70axf8UB-42" value="+ createProject()&#xa;+ getSchedule()" style="text;strokeColor=none;fillColor=none;align=left;verticalAlign=top;spacingLeft=4;spacingRight=4;overflow=hidden;rotatable=0;points=[[0,0.5],[1,0.5]];portConstraint=eastwest;" parent="xye77zWNS0Tj70axf8UB-39" vertex="1">
          <mxGeometry y="98" width="170" height="42" as="geometry" />
        </mxCell>
        <mxCell id="AMtBbdAEOM9LbvXhgEqw-5" value="" style="triangle;whiteSpace=wrap;html=1;rotation=-90;" parent="1" vertex="1">
          <mxGeometry x="1231" y="-390" width="20" height="26.67" as="geometry" />
        </mxCell>
        <mxCell id="xye77zWNS0Tj70axf8UB-52" value="&lt;font style=&quot;font-size: 14px&quot;&gt;*&lt;/font&gt;" style="text;html=1;strokeColor=none;fillColor=none;align=center;verticalAlign=middle;whiteSpace=wrap;rounded=0;strokeWidth=3;" parent="1" vertex="1">
          <mxGeometry x="1241" y="-739" width="40" height="20" as="geometry" />
        </mxCell>
        <mxCell id="xye77zWNS0Tj70axf8UB-53" value="1" style="text;html=1;strokeColor=none;fillColor=none;align=center;verticalAlign=middle;whiteSpace=wrap;rounded=0;" parent="1" vertex="1">
          <mxGeometry x="1000" y="-880" width="40" height="20" as="geometry" />
        </mxCell>
        <mxCell id="xye77zWNS0Tj70axf8UB-56" value="1" style="text;html=1;strokeColor=none;fillColor=none;align=center;verticalAlign=middle;whiteSpace=wrap;rounded=0;" parent="1" vertex="1">
          <mxGeometry x="770" y="-880" width="40" height="20" as="geometry" />
        </mxCell>
        <mxCell id="xye77zWNS0Tj70axf8UB-57" value="&lt;font style=&quot;font-size: 14px&quot;&gt;*&lt;/font&gt;" style="text;html=1;strokeColor=none;fillColor=none;align=center;verticalAlign=middle;whiteSpace=wrap;rounded=0;" parent="1" vertex="1">
          <mxGeometry x="580" y="-749" width="40" height="20" as="geometry" />
        </mxCell>
        <mxCell id="xye77zWNS0Tj70axf8UB-60" style="edgeStyle=orthogonalEdgeStyle;rounded=0;orthogonalLoop=1;jettySize=auto;html=1;entryX=-0.024;entryY=-0.087;entryDx=0;entryDy=0;entryPerimeter=0;" parent="1" source="QQinSoSuHEGu0At0k3YD-6" target="QQinSoSuHEGu0At0k3YD-18" edge="1">
          <mxGeometry relative="1" as="geometry" />
        </mxCell>
        <mxCell id="xye77zWNS0Tj70axf8UB-61" value="&lt;font style=&quot;font-size: 14px&quot;&gt;*&lt;/font&gt;" style="text;html=1;strokeColor=none;fillColor=none;align=center;verticalAlign=middle;whiteSpace=wrap;rounded=0;" parent="1" vertex="1">
          <mxGeometry x="770" y="-719" width="40" height="20" as="geometry" />
        </mxCell>
        <mxCell id="xye77zWNS0Tj70axf8UB-62" value="1" style="text;html=1;strokeColor=none;fillColor=none;align=center;verticalAlign=middle;whiteSpace=wrap;rounded=0;" parent="1" vertex="1">
          <mxGeometry x="690" y="-700" width="40" height="20" as="geometry" />
        </mxCell>
        <mxCell id="xye77zWNS0Tj70axf8UB-63" value="&lt;font style=&quot;font-size: 14px&quot;&gt;*&lt;/font&gt;" style="text;html=1;strokeColor=none;fillColor=none;align=center;verticalAlign=middle;whiteSpace=wrap;rounded=0;" parent="1" vertex="1">
          <mxGeometry x="990" y="-710" width="40" height="20" as="geometry" />
        </mxCell>
        <mxCell id="xye77zWNS0Tj70axf8UB-64" value="&lt;font style=&quot;font-size: 14px&quot;&gt;*&lt;/font&gt;" style="text;html=1;strokeColor=none;fillColor=none;align=center;verticalAlign=middle;whiteSpace=wrap;rounded=0;" parent="1" vertex="1">
          <mxGeometry x="1110" y="-720" width="40" height="20" as="geometry" />
        </mxCell>
        <mxCell id="xye77zWNS0Tj70axf8UB-67" value="1" style="text;html=1;strokeColor=none;fillColor=none;align=center;verticalAlign=middle;whiteSpace=wrap;rounded=0;" parent="1" vertex="1">
          <mxGeometry x="690" y="-671" width="40" height="20" as="geometry" />
        </mxCell>
        <mxCell id="xye77zWNS0Tj70axf8UB-68" value="1" style="text;html=1;strokeColor=none;fillColor=none;align=center;verticalAlign=middle;whiteSpace=wrap;rounded=0;" parent="1" vertex="1">
          <mxGeometry x="750" y="-609" width="40" height="20" as="geometry" />
        </mxCell>
        <mxCell id="xye77zWNS0Tj70axf8UB-69" style="edgeStyle=orthogonalEdgeStyle;rounded=0;orthogonalLoop=1;jettySize=auto;html=1;entryX=1;entryY=0.5;entryDx=0;entryDy=0;dashed=1;" parent="1" source="xye77zWNS0Tj70axf8UB-40" target="QQinSoSuHEGu0At0k3YD-10" edge="1">
          <mxGeometry relative="1" as="geometry" />
        </mxCell>
        <mxCell id="xye77zWNS0Tj70axf8UB-73" value="1" style="text;html=1;strokeColor=none;fillColor=none;align=center;verticalAlign=middle;whiteSpace=wrap;rounded=0;" parent="1" vertex="1">
          <mxGeometry x="1010" y="-620" width="50" height="20" as="geometry" />
        </mxCell>
        <mxCell id="xye77zWNS0Tj70axf8UB-75" value="1" style="text;html=1;strokeColor=none;fillColor=none;align=center;verticalAlign=middle;whiteSpace=wrap;rounded=0;" parent="1" vertex="1">
          <mxGeometry x="1201" y="-510" width="40" height="20" as="geometry" />
        </mxCell>
      </root>
    </mxGraphModel>
  </diagram>
</mxfile>
